<mxfile host="app.diagrams.net" agent="GitHub Copilot" version="24.7.17">
  <diagram name="CDK AWS Architecture" id="cdk-serverless-auth">
    <mxGraphModel dx="1426" dy="1918" grid="1" gridSize="10" guides="1" tooltips="1" connect="1" arrows="1" fold="1" page="1" pageScale="1" pageWidth="1169" pageHeight="827" math="0" shadow="0">
      <root>
        <mxCell id="0" />
        <mxCell id="1" parent="0" />
        
        <!-- User/Browser -->
        <mxCell id="user-browser" value="ユーザ&#xa;Browser" style="shape=actor;whiteSpace=wrap;html=1;fillColor=#dae8fc;strokeColor=#6c8ebf;" vertex="1" parent="1">
          <mxGeometry x="50" y="200" width="60" height="80" as="geometry" />
        </mxCell>
        
        <!-- Vercel Frontend -->
        <mxCell id="vercel-frontend" value="" style="shape=image;html=1;verticalAlign=top;verticalLabelPosition=bottom;labelBackgroundColor=#ffffff;imageAspect=0;aspect=fixed;image=https://icons.diagrams.net/icon-cache1/Ionicons_Fill_Vol_2-2187/logo-vercel-632.svg" vertex="1" parent="1">
          <mxGeometry x="200" y="200" width="80" height="80" as="geometry" />
        </mxCell>
        <mxCell id="vercel-label" value="Vercel CDN&#xa;Next.js auth-front" style="text;html=1;align=center;verticalAlign=middle;resizable=0;points=[];autosize=1;strokeColor=none;fillColor=none;fontStyle=1;" vertex="1" parent="1">
          <mxGeometry x="190" y="290" width="100" height="40" as="geometry" />
        </mxCell>
        
        <!-- AWS Cloud Container -->
        <mxCell id="aws-cloud" value="AWS Cloud" style="points=[[0,0],[0.25,0],[0.5,0],[0.75,0],[1,0],[1,0.25],[1,0.5],[1,0.75],[1,1],[0.75,1],[0.5,1],[0.25,1],[0,1],[0,0.75],[0,0.5],[0,0.25]];outlineConnect=0;gradientColor=none;html=1;whiteSpace=wrap;fontSize=14;fontStyle=1;container=1;pointerEvents=0;collapsible=0;recursiveResize=0;shape=mxgraph.aws4.group;grIcon=mxgraph.aws4.group_aws_cloud_alt;strokeColor=#232F3E;fillColor=none;verticalAlign=top;align=left;spacingLeft=30;fontColor=#232F3E;dashed=0;" vertex="1" parent="1">
          <mxGeometry x="400" y="120" width="700" height="400" as="geometry" />
        </mxCell>
        
        <!-- CloudFormation Stack Container -->
        <mxCell id="cf-stack" value="CloudFormation Stack: CdkInfrastructureStack" style="rounded=1;whiteSpace=wrap;html=1;fillColor=#fff2cc;strokeColor=#d6b656;verticalAlign=top;fontStyle=1;spacingTop=20;" vertex="1" parent="aws-cloud">
          <mxGeometry x="20" y="40" width="660" height="340" as="geometry" />
        </mxCell>
        
        <!-- API Gateway -->
        <mxCell id="api-gateway" value="" style="sketch=0;points=[[0,0,0],[0.25,0,0],[0.5,0,0],[0.75,0,0],[1,0,0],[0,1,0],[0.25,1,0],[0.5,1,0],[0.75,1,0],[1,1,0],[0,0.25,0],[0,0.5,0],[0,0.75,0],[1,0.25,0],[1,0.5,0],[1,0.75,0]];outlineConnect=0;fontColor=#232F3E;fillColor=#E7157B;strokeColor=#ffffff;dashed=0;verticalLabelPosition=bottom;verticalAlign=top;align=center;html=1;fontSize=12;fontStyle=0;aspect=fixed;shape=mxgraph.aws4.resourceIcon;resIcon=mxgraph.aws4.api_gateway;" vertex="1" parent="cf-stack">
          <mxGeometry x="50" y="80" width="78" height="78" as="geometry" />
        </mxCell>
        <mxCell id="api-gateway-label" value="API Gateway REST&#xa;ServerlessApi&#xa;POST /auth&#xa;CORS: ALL_ORIGINS" style="text;html=1;align=center;verticalAlign=middle;resizable=0;points=[];autosize=1;strokeColor=none;fillColor=none;fontStyle=1;fontSize=10;" vertex="1" parent="cf-stack">
          <mxGeometry x="29" y="180" width="120" height="70" as="geometry" />
        </mxCell>
        
        <!-- Lambda Function -->
        <mxCell id="lambda-function" value="" style="outlineConnect=0;dashed=0;verticalLabelPosition=bottom;verticalAlign=top;align=center;html=1;shape=mxgraph.aws3.lambda_function;fillColor=#F58534;gradientColor=none;" vertex="1" parent="cf-stack">
          <mxGeometry x="250" y="80" width="78" height="78" as="geometry" />
        </mxCell>
        <mxCell id="lambda-label" value="Lambda Function&#xa;AuthFunction&#xa;Node.js 20.x&#xa;handler: auth.handler&#xa;ENV: AUTH_TABLE_NAME" style="text;html=1;align=center;verticalAlign=middle;resizable=0;points=[];autosize=1;strokeColor=none;fillColor=none;fontStyle=1;fontSize=10;" vertex="1" parent="cf-stack">
          <mxGeometry x="219" y="170" width="140" height="80" as="geometry" />
        </mxCell>
        
        <!-- IAM Role -->
        <mxCell id="iam-role" value="" style="sketch=0;points=[[0,0,0],[0.25,0,0],[0.5,0,0],[0.75,0,0],[1,0,0],[0,1,0],[0.25,1,0],[0.5,1,0],[0.75,1,0],[1,1,0],[0,0.25,0],[0,0.5,0],[0,0.75,0],[1,0.25,0],[1,0.5,0],[1,0.75,0]];outlineConnect=0;fontColor=#232F3E;fillColor=#BF0816;strokeColor=#ffffff;dashed=0;verticalLabelPosition=bottom;verticalAlign=top;align=center;html=1;fontSize=12;fontStyle=0;aspect=fixed;shape=mxgraph.aws4.resourceIcon;resIcon=mxgraph.aws4.role;" vertex="1" parent="cf-stack">
          <mxGeometry x="250" y="280" width="78" height="78" as="geometry" />
        </mxCell>
        <mxCell id="iam-role-label" value="IAM Role&#xa;LambdaRole&#xa;+ BasicExecutionRole&#xa;+ DynamoDB R/W" style="text;html=1;align=center;verticalAlign=middle;resizable=0;points=[];autosize=1;strokeColor=none;fillColor=none;fontStyle=1;fontSize=10;" vertex="1" parent="cf-stack">
          <mxGeometry x="364" y="290" width="120" height="70" as="geometry" />
        </mxCell>
        
        <!-- DynamoDB -->
        <mxCell id="dynamodb" value="" style="sketch=0;points=[[0,0,0],[0.25,0,0],[0.5,0,0],[0.75,0,0],[1,0,0],[0,1,0],[0.25,1,0],[0.5,1,0],[0.75,1,0],[1,1,0],[0,0.25,0],[0,0.5,0],[0,0.75,0],[1,0.25,0],[1,0.5,0],[1,0.75,0]];outlineConnect=0;fontColor=#232F3E;fillColor=#C925D1;strokeColor=#ffffff;dashed=0;verticalLabelPosition=bottom;verticalAlign=top;align=center;html=1;fontSize=12;fontStyle=0;aspect=fixed;shape=mxgraph.aws4.resourceIcon;resIcon=mxgraph.aws4.dynamodb;" vertex="1" parent="cf-stack">
          <mxGeometry x="480" y="80" width="78" height="78" as="geometry" />
        </mxCell>
        <mxCell id="dynamodb-label" value="DynamoDB Table&#xa;AuthData&#xa;PartitionKey: id (STRING)&#xa;BillingMode: PAY_PER_REQUEST&#xa;RemovalPolicy: DESTROY" style="text;html=1;align=center;verticalAlign=middle;resizable=0;points=[];autosize=1;strokeColor=none;fillColor=none;fontStyle=1;fontSize=10;" vertex="1" parent="cf-stack">
          <mxGeometry x="424" y="170" width="190" height="80" as="geometry" />
        </mxCell>
        
        <!-- CloudWatch Logs -->
        <mxCell id="cloudwatch" value="" style="sketch=0;points=[[0,0,0],[0.25,0,0],[0.5,0,0],[0.75,0,0],[1,0,0],[0,1,0],[0.25,1,0],[0.5,1,0],[0.75,1,0],[1,1,0],[0,0.25,0],[0,0.5,0],[0,0.75,0],[1,0.25,0],[1,0.5,0],[1,0.75,0]];outlineConnect=0;fontColor=#232F3E;fillColor=#759C3E;strokeColor=#ffffff;dashed=0;verticalLabelPosition=bottom;verticalAlign=top;align=center;html=1;fontSize=12;fontStyle=0;aspect=fixed;shape=mxgraph.aws4.resourceIcon;resIcon=mxgraph.aws4.cloudwatch;" vertex="1" parent="cf-stack">
          <mxGeometry x="50" y="280" width="78" height="78" as="geometry" />
        </mxCell>
        <mxCell id="cloudwatch-label" value="CloudWatch Logs&#xa;/aws/lambda/AuthFunction" style="text;html=1;align=center;verticalAlign=middle;resizable=0;points=[];autosize=1;strokeColor=none;fillColor=none;fontStyle=1;fontSize=10;" vertex="1" parent="cf-stack">
          <mxGeometry x="14" y="370" width="150" height="40" as="geometry" />
        </mxCell>
        
        <!-- Connection: User to Vercel -->
        <mxCell id="conn-user-vercel" value="HTTPS" style="edgeStyle=orthogonalEdgeStyle;html=1;endArrow=block;elbow=vertical;startArrow=none;endFill=1;strokeColor=#0066CC;rounded=0;strokeWidth=2;" edge="1" parent="1" source="user-browser" target="vercel-frontend">
          <mxGeometry width="100" relative="1" as="geometry">
            <mxPoint x="120" y="240" as="sourcePoint" />
            <mxPoint x="190" y="240" as="targetPoint" />
          </mxGeometry>
        </mxCell>
        
        <!-- Connection: Vercel to API Gateway -->
        <mxCell id="conn-vercel-api" value="POST /auth&#xa;JSON + CORS" style="edgeStyle=orthogonalEdgeStyle;html=1;endArrow=block;elbow=vertical;startArrow=none;endFill=1;strokeColor=#0066CC;rounded=0;strokeWidth=2;" edge="1" parent="1" source="vercel-frontend" target="api-gateway">
          <mxGeometry width="100" relative="1" as="geometry">
            <mxPoint x="290" y="240" as="sourcePoint" />
            <mxPoint x="440" y="240" as="targetPoint" />
          </mxGeometry>
        </mxCell>
        
        <!-- Connection: API Gateway to Lambda -->
        <mxCell id="conn-api-lambda" value="Lambda Integration&#xa;Event + Context" style="edgeStyle=orthogonalEdgeStyle;html=1;endArrow=block;elbow=vertical;startArrow=none;endFill=1;strokeColor=#FF6600;rounded=0;strokeWidth=2;" edge="1" parent="cf-stack" source="api-gateway" target="lambda-function">
          <mxGeometry width="100" relative="1" as="geometry">
            <mxPoint x="140" y="119" as="sourcePoint" />
            <mxPoint x="240" y="119" as="targetPoint" />
          </mxGeometry>
        </mxCell>
        
        <!-- Connection: Lambda to DynamoDB -->
        <mxCell id="conn-lambda-dynamodb" value="GetItem/PutItem&#xa;AUTH_TABLE_NAME" style="edgeStyle=orthogonalEdgeStyle;html=1;endArrow=block;elbow=vertical;startArrow=none;endFill=1;strokeColor=#9900CC;rounded=0;strokeWidth=2;" edge="1" parent="cf-stack" source="lambda-function" target="dynamodb">
          <mxGeometry width="100" relative="1" as="geometry">
            <mxPoint x="340" y="119" as="sourcePoint" />
            <mxPoint x="470" y="119" as="targetPoint" />
          </mxGeometry>
        </mxCell>
        
        <!-- Connection: Lambda to CloudWatch -->
        <mxCell id="conn-lambda-cloudwatch" value="Logs" style="edgeStyle=orthogonalEdgeStyle;html=1;endArrow=block;elbow=vertical;startArrow=none;endFill=1;strokeColor=#009900;rounded=0;strokeWidth=2;" edge="1" parent="cf-stack" source="lambda-function" target="cloudwatch">
          <mxGeometry width="100" relative="1" as="geometry">
            <mxPoint x="250" y="150" as="sourcePoint" />
            <mxPoint x="140" y="280" as="targetPoint" />
          </mxGeometry>
        </mxCell>
        
        <!-- Connection: IAM Role to Lambda (AssumeRole) -->
        <mxCell id="conn-role-lambda" value="AssumeRole" style="edgeStyle=orthogonalEdgeStyle;html=1;endArrow=none;elbow=vertical;startArrow=openThin;startFill=0;strokeColor=#CC0000;rounded=0;strokeWidth=2;dashed=1;" edge="1" parent="cf-stack" source="iam-role" target="lambda-function">
          <mxGeometry width="100" relative="1" as="geometry">
            <mxPoint x="289" y="270" as="sourcePoint" />
            <mxPoint x="289" y="170" as="targetPoint" />
          </mxGeometry>
        </mxCell>
        
        <!-- Connection: IAM Role to DynamoDB (Grant) -->
        <mxCell id="conn-role-dynamodb" value="grantReadWriteData" style="edgeStyle=orthogonalEdgeStyle;html=1;endArrow=none;elbow=vertical;startArrow=openThin;startFill=0;strokeColor=#CC0000;rounded=0;strokeWidth=2;dashed=1;" edge="1" parent="cf-stack" source="iam-role" target="dynamodb">
          <mxGeometry width="100" relative="1" as="geometry">
            <mxPoint x="340" y="319" as="sourcePoint" />
            <mxPoint x="470" y="170" as="targetPoint" />
          </mxGeometry>
        </mxCell>
        
        <!-- CDK Outputs Box -->
        <mxCell id="outputs-box" value="CloudFormation Outputs" style="rounded=1;whiteSpace=wrap;html=1;fillColor=#f8cecc;strokeColor=#b85450;verticalAlign=top;fontStyle=1;spacingTop=10;" vertex="1" parent="1">
          <mxGeometry x="420" y="580" width="300" height="100" as="geometry" />
        </mxCell>
        <mxCell id="outputs-text" value="ApiGatewayUrl: https://xxxxx.execute-api.region.amazonaws.com/prod/&#xa;AuthTableName: AuthData" style="text;html=1;align=left;verticalAlign=middle;resizable=0;points=[];autosize=1;strokeColor=none;fillColor=none;fontSize=10;" vertex="1" parent="1">
          <mxGeometry x="430" y="610" width="380" height="40" as="geometry" />
        </mxCell>
        
        <!-- Data Flow Legend -->
        <mxCell id="legend-box" value="データフロー凡例" style="rounded=1;whiteSpace=wrap;html=1;fillColor=#e1d5e7;strokeColor=#9673a6;verticalAlign=top;fontStyle=1;spacingTop=10;" vertex="1" parent="1">
          <mxGeometry x="800" y="580" width="300" height="120" as="geometry" />
        </mxCell>
        <mxCell id="legend-https" value="── HTTPS リクエスト" style="text;html=1;align=left;verticalAlign=middle;resizable=0;points=[];autosize=1;strokeColor=none;fillColor=none;fontSize=10;fontColor=#0066CC;" vertex="1" parent="1">
          <mxGeometry x="810" y="610" width="140" height="30" as="geometry" />
        </mxCell>
        <mxCell id="legend-lambda" value="── Lambda 統合" style="text;html=1;align=left;verticalAlign=middle;resizable=0;points=[];autosize=1;strokeColor=none;fillColor=none;fontSize=10;fontColor=#FF6600;" vertex="1" parent="1">
          <mxGeometry x="810" y="630" width="100" height="30" as="geometry" />
        </mxCell>
        <mxCell id="legend-dynamodb" value="── DynamoDB アクセス" style="text;html=1;align=left;verticalAlign=middle;resizable=0;points=[];autosize=1;strokeColor=none;fillColor=none;fontSize=10;fontColor=#9900CC;" vertex="1" parent="1">
          <mxGeometry x="810" y="650" width="140" height="30" as="geometry" />
        </mxCell>
        <mxCell id="legend-iam" value="--･-- IAM 権限" style="text;html=1;align=left;verticalAlign=middle;resizable=0;points=[];autosize=1;strokeColor=none;fillColor=none;fontSize=10;fontColor=#CC0000;" vertex="1" parent="1">
          <mxGeometry x="810" y="670" width="100" height="30" as="geometry" />
        </mxCell>
        
      </root>
    </mxGraphModel>
  </diagram>
</mxfile>
